<?xml version="1.0" encoding="utf-8"?>
<!-- Generator: Adobe Illustrator 23.0.0, SVG Export Plug-In . SVG Version: 6.00 Build 0)  -->
<svg version="1.1" id="レイヤー_1" xmlns="http://www.w3.org/2000/svg" xmlns:xlink="http://www.w3.org/1999/xlink" x="0px"
	 y="0px" viewBox="0 0 138 138" style="enable-background:new 0 0 138 138;" xml:space="preserve">
<style type="text/css">
	.st0{fill:none;stroke:#FFFFFF;stroke-width:8;stroke-miterlimit:10;}
	.st1{fill:#FFFFFF;}
</style>
<g>
	<circle class="st0" cx="69" cy="69" r="65"/>
	<g>
		<g>
			<path class="st1" d="M43.74,82.57c-0.99,0-1.83-0.36-2.54-1.09c-0.71-0.73-1.06-1.59-1.06-2.57V39.25c0-0.99,0.35-1.84,1.06-2.57
				c0.71-0.73,1.56-1.09,2.54-1.09h2.06c0.99,0,1.84,0.37,2.57,1.09c0.73,0.73,1.09,1.59,1.09,2.57v35.27
				c0,0.39,0.17,0.58,0.51,0.58h16.54c0.99,0,1.83,0.35,2.54,1.06c0.71,0.71,1.06,1.56,1.06,2.54v0.19c0,0.99-0.35,1.85-1.06,2.57
				c-0.71,0.73-1.56,1.09-2.54,1.09H43.74z"/>
		</g>
		<g>
			<path class="st1" d="M87.39,102.42c-6.03,0-10.8-1.86-14.33-5.58c-3.53-3.72-5.29-9.01-5.29-15.88c0-6.79,1.71-12.06,5.12-15.82
				c3.41-3.76,8.19-5.64,14.33-5.64c2.82,0,5.19,0.17,7.09,0.51c0.92,0.15,1.68,0.61,2.29,1.37c0.61,0.76,0.92,1.62,0.92,2.57v0.46
				c0,0.8-0.33,1.43-1,1.89c-0.67,0.46-1.38,0.59-2.15,0.4c-1.87-0.5-3.97-0.74-6.29-0.74c-3.78,0-6.74,1.3-8.9,3.89
				c-2.16,2.59-3.23,6.29-3.23,11.1c0,4.77,1.12,8.46,3.35,11.07c2.23,2.61,5.22,3.92,8.95,3.92c2.52,0,4.67-0.23,6.47-0.69
				c0.76-0.19,1.48-0.06,2.15,0.4c0.67,0.46,1,1.09,1,1.89v0.4c0,0.95-0.3,1.8-0.89,2.55c-0.59,0.74-1.36,1.19-2.32,1.34
				C92.48,102.22,90.06,102.42,87.39,102.42z"/>
		</g>
	</g>
</g>
</svg>
